<?xml version="1.0" encoding="UTF-8"?>
<svg version="1.1" xmlns="http://www.w3.org/2000/svg" width="32" height="32">
<path d="M0 0 C2.4375 1.875 2.4375 1.875 4 4 C4 4.99 4 5.98 4 7 C4.639375 7.12375 5.27875 7.2475 5.9375 7.375 C6.618125 7.58125 7.29875 7.7875 8 8 C9.1482685 10.296537 9.11561175 11.58313167 9.09765625 14.1328125 C9.09443359 14.93847656 9.09121094 15.74414062 9.08789062 16.57421875 C9.07951172 17.41597656 9.07113281 18.25773437 9.0625 19.125 C9.05798828 19.97449219 9.05347656 20.82398437 9.04882812 21.69921875 C9.03702874 23.79950909 9.01909306 25.8997633 9 28 C5.03069011 28.02465881 1.06140966 28.04284023 -2.90795898 28.05493164 C-4.25920386 28.05997057 -5.61044326 28.06680177 -6.96166992 28.07543945 C-8.90020434 28.08752419 -10.838778 28.09269828 -12.77734375 28.09765625 C-14.52905884 28.10551147 -14.52905884 28.10551147 -16.31616211 28.11352539 C-19 28 -19 28 -20 27 C-20.15385859 24.38144517 -20.23166284 21.80742237 -20.25 19.1875 C-20.270625 18.46240234 -20.29125 17.73730469 -20.3125 16.99023438 C-20.33628618 13.74044786 -20.20415546 11.386094 -18.671875 8.48828125 C-17 7 -17 7 -14 7 C-13.95875 6.4225 -13.9175 5.845 -13.875 5.25 C-11.43491229 -1.02451124 -5.80517754 -1.7200526 0 0 Z M-2 3 C-1.34 3.66 -0.68 4.32 0 5 C0 4.34 0 3.68 0 3 C-0.66 3 -1.32 3 -2 3 Z M-7 5 C-7.33 5.99 -7.66 6.98 -8 8 C-8.66 8 -9.32 8 -10 8 C-10.66 9.65 -11.32 11.3 -12 13 C-9.81099414 15.1687189 -9.81099414 15.1687189 -7 17 C-3.44746291 16.83083157 -2.0007165 16.00047767 1 14 C0.43968727 11.06361777 0.43968727 11.06361777 -1 8 C-4.0005907 6.08160141 -4.0005907 6.08160141 -7 5 Z M-13 8 C-12 10 -12 10 -12 10 Z M1 8 C2 10 2 10 2 10 Z M-16 9 C-16.33 9.66 -16.66 10.32 -17 11 C-16.34 11 -15.68 11 -15 11 C-15.33 10.34 -15.66 9.68 -16 9 Z M-17 13 C-16.67 13.66 -16.34 14.32 -16 15 C-15.67 14.34 -15.34 13.68 -15 13 C-15.66 13 -16.32 13 -17 13 Z M-14 14 C-14.33 14.99 -14.66 15.98 -15 17 C-14.01 16.67 -13.02 16.34 -12 16 C-12.66 15.34 -13.32 14.68 -14 14 Z M1 15 C0.34 15.66 -0.32 16.32 -1 17 C-0.01 17 0.98 17 2 17 C1.67 16.34 1.34 15.68 1 15 Z " fill="#227DD8" transform="translate(21,2)"/>
<path d="M0 0 C0.55486084 0.32524658 1.10972168 0.65049316 1.68139648 0.9855957 C4.34600457 2.15137928 6.19875213 2.24397913 9.09765625 2.23046875 C10.54688477 2.22756836 10.54688477 2.22756836 12.02539062 2.22460938 C13.02763672 2.21236328 14.02988281 2.20011719 15.0625 2.1875 C16.57166992 2.1865332 16.57166992 2.1865332 18.11132812 2.18554688 C23.64500393 2.20250347 23.64500393 2.20250347 29 1 C29 4.63 29 8.26 29 12 C25.03069011 12.02465881 21.06140966 12.04284023 17.09204102 12.05493164 C15.74079614 12.05997057 14.38955674 12.06680177 13.03833008 12.07543945 C11.09979566 12.08752419 9.161222 12.09269828 7.22265625 12.09765625 C5.47094116 12.10551147 5.47094116 12.10551147 3.68383789 12.11352539 C1 12 1 12 0 11 C-0.07226502 9.14712498 -0.0838122 7.29166122 -0.0625 5.4375 C-0.05347656 4.42558594 -0.04445312 3.41367187 -0.03515625 2.37109375 C-0.02355469 1.58863281 -0.01195313 0.80617188 0 0 Z " fill="#B09878" transform="translate(1,18)"/>
<path d="M0 0 C2.5 1.75 2.5 1.75 4 4 C3.75 6.75 3.75 6.75 3 9 C-1.69056641 8.4136792 -6.08968731 6.64951093 -10 4 C-10.33 3.01 -10.66 2.02 -11 1 C-7.21908853 -1.5710198 -4.32093764 -1.08023441 0 0 Z M-2 3 C-1.34 3.66 -0.68 4.32 0 5 C0 4.34 0 3.68 0 3 C-0.66 3 -1.32 3 -2 3 Z " fill="#44B5F3" transform="translate(21,2)"/>
<path d="M0 0 C0.36487169 4.50008419 0.36487169 4.50008419 -1.19921875 6.64306641 C-3.5725673 8.43144374 -5.04641002 8.38716835 -8 8.3984375 C-8.969375 8.40230469 -9.93875 8.40617187 -10.9375 8.41015625 C-11.948125 8.39855469 -12.95875 8.38695312 -14 8.375 C-15.010625 8.38660156 -16.02125 8.39820313 -17.0625 8.41015625 C-18.031875 8.40628906 -19.00125 8.40242188 -20 8.3984375 C-20.886875 8.39505371 -21.77375 8.39166992 -22.6875 8.38818359 C-25.43927263 7.9262623 -26.35358714 7.21846009 -28 5 C-28 4.34 -28 3.68 -28 3 C-27.01 3.33 -26.02 3.66 -25 4 C-25 4.66 -25 5.32 -25 6 C-14.44884157 6.20772634 -14.44884157 6.20772634 -4 5 C-4 3.68 -4 2.36 -4 1 C-2 0 -2 0 0 0 Z " fill="#0564D4" transform="translate(30,13)"/>
<path d="M0 0 C3.3 0 6.6 0 10 0 C9 4 9 4 7.25 5.8125 C4.3995411 7.31690887 3.01911587 6.92250763 0 6 C0 4.02 0 2.04 0 0 Z " fill="#404853" transform="translate(1,23)"/>
<path d="M0 0 C2 1.375 2 1.375 4 3 C4 3.66 4 4.32 4 5 C4.99 5 5.98 5 7 5 C7.33 4.01 7.66 3.02 8 2 C8.33 2 8.66 2 9 2 C9 3.65 9 5.3 9 7 C3.72 7 -1.56 7 -7 7 C-5.68 5.68 -4.36 4.36 -3 3 C-2.34 3 -1.68 3 -1 3 C-0.67 2.01 -0.34 1.02 0 0 Z " fill="#3C444F" transform="translate(21,23)"/>
<path d="M0 0 C0.25 5.625 0.25 5.625 -2 9 C-4.375 8.8125 -4.375 8.8125 -7 8 C-8.3125 5.4375 -8.3125 5.4375 -9 3 C-2.25 0 -2.25 0 0 0 Z " fill="#57616C" transform="translate(30,19)"/>
<path d="M0 0 C0.66 0.33 1.32 0.66 2 1 C2 1.66 2 2.32 2 3 C2.99 3.33 3.98 3.66 5 4 C4.67 4.66 4.34 5.32 4 6 C3.34 6 2.68 6 2 6 C1.34 7.32 0.68 8.64 0 10 C-0.99 10 -1.98 10 -3 10 C-3 9.01 -3 8.02 -3 7 C-3.99 6.67 -4.98 6.34 -6 6 C-4.68 5.67 -3.36 5.34 -2 5 C-1.855625 4.360625 -1.71125 3.72125 -1.5625 3.0625 C-1 1 -1 1 0 0 Z M-1 6 C0 8 0 8 0 8 Z " fill="#2386E0" transform="translate(9,4)"/>
<path d="M0 0 C3.181798 1.06059933 6.0173094 2.47551369 9 4 C8.67 4.99 8.34 5.98 8 7 C7.01 6.67 6.02 6.34 5 6 C4.34 6.66 3.68 7.32 3 8 C2.67 7.01 2.34 6.02 2 5 C1.01 5 0.02 5 -1 5 C-0.67 3.35 -0.34 1.7 0 0 Z " fill="#1978D8" transform="translate(2,11)"/>
<path d="M0 0 C1.9375 0.8125 1.9375 0.8125 4 2 C4.33 2.99 4.66 3.98 5 5 C4.01 6.485 4.01 6.485 3 8 C0.83125748 7.49396008 -0.99967627 7.00016187 -3 6 C-3 5.34 -3 4.68 -3 4 C-1.68 4 -0.36 4 1 4 C0.67 2.68 0.34 1.36 0 0 Z " fill="#39A2ED" transform="translate(20,3)"/>
<path d="M0 0 C1.299375 0.7115625 1.299375 0.7115625 2.625 1.4375 C5.85387374 2.93234895 8.49033826 3.58218313 12 4 C11.01 5.485 11.01 5.485 10 7 C10 6.34 10 5.68 10 5 C6.7 5 3.4 5 0 5 C0 3.35 0 1.7 0 0 Z " fill="#7A8383" transform="translate(1,18)"/>
<path d="M0 0 C3.3 0 6.6 0 10 0 C9.67 0.99 9.34 1.98 9 3 C6.03 3 3.06 3 0 3 C0 2.01 0 1.02 0 0 Z " fill="#56606B" transform="translate(1,23)"/>
<path d="M0 0 C1.32 0.33 2.64 0.66 4 1 C3.34 1 2.68 1 2 1 C1.938125 1.598125 1.87625 2.19625 1.8125 2.8125 C0.66061101 5.91373958 -1.06759592 6.64108103 -4 8 C-4.66 7.67 -5.32 7.34 -6 7 C-4.6875 5.5 -4.6875 5.5 -3 4 C-2.01 4 -1.02 4 0 4 C0 2.68 0 1.36 0 0 Z " fill="#5C6570" transform="translate(15,22)"/>
<path d="M0 0 C0.66 0.33 1.32 0.66 2 1 C1.34 2.32 0.68 3.64 0 5 C-1.32 5 -2.64 5 -4 5 C-4 5.99 -4 6.98 -4 8 C-4.99 6.68 -5.98 5.36 -7 4 C-6.1028125 3.566875 -6.1028125 3.566875 -5.1875 3.125 C-2.80672208 1.95257974 -2.80672208 1.95257974 0 0 Z " fill="#7F848A" transform="translate(28,19)"/>
<path d="M0 0 C1.32 0.66 2.64 1.32 4 2 C4 2.66 4 3.32 4 4 C1.35261084 5.4606285 0.10551666 6 -3 6 C-3.33 5.01 -3.66 4.02 -4 3 C-3.01 3 -2.02 3 -1 3 C-0.67 2.01 -0.34 1.02 0 0 Z " fill="#1F86E0" transform="translate(24,8)"/>
<path d="M0 0 C0.66 0.33 1.32 0.66 2 1 C2 1.66 2 2.32 2 3 C2.99 3.33 3.98 3.66 5 4 C4.67 4.66 4.34 5.32 4 6 C2.68 6 1.36 6 0 6 C0 5.34 0 4.68 0 4 C-0.66 4 -1.32 4 -2 4 C-1.34 2.68 -0.68 1.36 0 0 Z " fill="#349EED" transform="translate(9,4)"/>
<path d="M0 0 C0 0.99 0 1.98 0 3 C-2.91789766 5.10737053 -5.52302382 6.21247975 -9 7 C-8.07347299 5.82460004 -7.13336613 4.65989423 -6.1875 3.5 C-5.66542969 2.8503125 -5.14335937 2.200625 -4.60546875 1.53125 C-3 0 -3 0 0 0 Z " fill="#D0D6DE" transform="translate(15,23)"/>
<path d="M0 0 C0.99 0 1.98 0 3 0 C3 0.99 3 1.98 3 3 C0.1875 5.25 0.1875 5.25 -3 7 C-3.99 6.67 -4.98 6.34 -6 6 C-5.195625 5.566875 -4.39125 5.13375 -3.5625 4.6875 C-0.72153646 3.19525998 -0.72153646 3.19525998 0 0 Z " fill="#D2D9DF" transform="translate(17,23)"/>
<path d="M0 0 C2.31 0.33 4.62 0.66 7 1 C6.67 2.65 6.34 4.3 6 6 C5.01 5.67 4.02 5.34 3 5 C2.67 4.01 2.34 3.02 2 2 C1.34 1.34 0.68 0.68 0 0 Z " fill="#61BFEA" transform="translate(14,1)"/>
</svg>
